# xmcd CD database file
#
# Track frame offsets:
#	150
#	8244
#	22920
#	24561
#	45039
#	61771
#	81913
#	86314
#	100590
#	116531
#	122704
#	155312
#	172410
#	203844
#	224272
#	244506
#
# Disc length: 3575 seconds
#
# Revision: 6
# Processed by: cddbd v1.5PL3 Copyright (c) Steve Scherf et al.
# Submitted via: CDex 1.40Release
#
DISCID=bb0df510
DTITLE=再生ハイパーべるーヴ - ぱんださんようちえん
DYEAR=2002
DGENRE=Comedy
TTITLE0=PANDA-RIDE
TTITLE1=ぱんださんようちえん
TTITLE2=はじめてのぱんださん
TTITLE3=かたつむりさん
TTITLE4=嘘ツキ鏡
TTITLE5=pink metallic crusaders
TTITLE6=きもだめし
TTITLE7=ワイルドじいさん
TTITLE8=腹筋体操第一
TTITLE9=パンダではだめですか？
TTITLE10=ウチュウのひと
TTITLE11=もう限界
TTITLE12=berceau
TTITLE13=blue plastic resistance
TTITLE14=Ｐ．Ｙ
TTITLE15=猫鍋
EXTD=YEAR: 2002 ID3G: 57
EXTT0=
EXTT1=
EXTT2=
EXTT3=
EXTT4=
EXTT5=
EXTT6=
EXTT7=
EXTT8=
EXTT9=
EXTT10=
EXTT11=
EXTT12=
EXTT13=
EXTT14=
EXTT15=
PLAYORDER=
